<svg width="80" height="48" viewBox="0 0 80 48" fill="none" xmlns="http://www.w3.org/2000/svg">
<path fill-rule="evenodd" clip-rule="evenodd" d="M7.96454 21.7509C7.98446 21.4106 8.035 20.5473 7.72033 19.6495C7.64542 19.4357 7.813 19.2058 8.02898 19.2739C8.89809 19.5481 9.60841 20.2147 9.95059 20.7503C10.2769 21.2611 8.76236 21.7316 7.9643 21.9031C7.95563 21.9031 7.95882 21.8485 7.96454 21.7509ZM32.9617 36.9599C31.9934 36.591 30.3133 35.6652 29.5921 34.9558C32.4828 31.1429 40.6053 36.7292 39.8605 38.2544C39.3276 39.3456 37.3514 40.0737 35.8672 40.6205C35.2768 40.838 34.7643 41.0268 34.4514 41.1984C33.5856 41.6732 33.6544 42.049 33.7575 42.6116C33.7853 42.7635 33.8156 42.929 33.8307 43.1137C33.9016 43.9827 32.4828 44.7276 32.1281 44.7276C31.7734 44.7276 31.4188 43.6103 31.8444 41.8014C32.1004 40.7133 33.5941 39.7803 34.7359 39.0672C35.415 38.643 35.9696 38.2966 36.0653 38.0416C36.1594 37.7905 35.5806 37.6567 34.7841 37.4726C34.2308 37.3447 33.5724 37.1926 32.9617 36.9599ZM13.5457 39.8734C18.1393 39.6183 20.6049 37.4809 21.15 36.3036C20.5293 35.3637 16.0779 37.0485 13.3999 38.2545C10.722 39.4604 6.68753 41.9167 6.83808 42.6882C6.9196 43.1059 7.5798 43.4464 8.39874 43.2911C8.91304 43.1936 9.96275 42.6671 10.8284 41.8014C11.6183 41.0115 12.2764 40.4707 13.0423 40.0191C13.1945 39.9294 13.3692 39.8832 13.5457 39.8734Z" fill="#9C0001"/>
<path fill-rule="evenodd" clip-rule="evenodd" d="M52.1756 18.8599C45.6465 18.8599 41.2286 23.9079 39.5706 26.9659C38.0351 26.1638 36.4513 25.9182 35.1341 25.9182C34.098 25.9182 32.9057 26.196 31.6003 26.5002C30.0213 26.8682 28.277 27.2747 26.4437 27.2747C22.0209 27.2747 18.136 25.3645 14.5315 22.9931C13.3948 22.2452 12.5676 21.753 11.8868 21.4415C11.5825 20.142 10.7849 19.107 10.1616 18.7015C9.99749 18.5948 9.82078 18.7378 9.83098 18.9333C9.88279 19.9265 9.72463 20.5863 9.53953 20.9803C8.50298 21.0497 7.51635 21.4769 5.63979 23.3535C3.54138 25.4519 2.56883 25.5367 1.91985 25.5367C1.37933 25.5367 0.838867 25.8228 0.838867 26.2468C0.838867 27.6993 4.74141 27.1466 6.71875 27.1406C6.83702 27.1403 7.92188 27.2344 8.02595 27.2344C9.68197 27.2344 9.69705 28.5126 10.7119 30.2833C10.8271 30.4842 10.9437 30.6875 11.0625 30.8906C11.8753 32.2798 12.4084 33.957 12.8571 34.516C13.0519 34.7587 13.1975 34.9401 13.281 35.0749C13.1538 35.9015 11.4176 36.5586 8.78929 36.9189C6.16098 37.2792 2.59815 40.1831 2.59815 40.8614C2.59815 41.5397 4.16666 41.688 5.43842 40.7554C6.71019 39.8228 8.61783 38.4238 9.91079 38.5934C14.044 39.2293 17.7957 37.7244 18.8131 36.9189C25.2081 38.1708 28.4839 36.452 29.9444 35.6857C30.3138 35.4919 30.567 35.359 30.7253 35.3504C31.5096 35.308 34.2015 35.8167 35.9183 36.9189C37.6352 38.0211 40.4755 39.4836 44.6935 39.9288C48.9115 40.3739 51.4127 43.2777 51.4127 44.5283C51.4127 45.2858 51.0744 45.5533 50.8076 45.7643C50.634 45.9017 50.4906 46.0151 50.4906 46.224C50.4906 46.4253 50.7874 46.6691 51.4127 46.6691C52.5784 46.6691 53.3415 45.4397 53.3415 44.4223C53.3415 43.4049 52.2393 41.9636 50.9887 40.5222C49.7382 39.0809 48.4899 38.7228 46.9191 37.1521C45.719 36.1251 45.2602 34.9536 44.7288 33.5967C44.284 32.461 43.7883 31.1954 42.7647 29.7758C42.1036 28.859 41.369 28.1477 40.6032 27.6004C42.2903 26.4769 44.8273 25.2598 47.9375 25.75C49.6203 26.0152 51.51 26.5002 52.9062 26.5002C59.7314 26.5002 65.9107 23.4594 68.6662 17.355C65.8886 19.9514 62.2618 19.6129 57.8698 19.2029C56.0948 19.0372 54.1949 18.8599 52.1756 18.8599Z" fill="#CB1A12"/>
<path fill-rule="evenodd" clip-rule="evenodd" d="M46.5647 24.5988C42.9327 24.5988 41.2646 26.0138 40.6025 27.5981L40.6049 27.5995C42.2924 26.4775 45.4693 26.9782 48.5784 27.4683C50.2612 27.7335 51.9241 27.9956 53.3203 27.9956C60.0637 27.9956 65.7726 23.5676 68.566 17.5737L68.5203 17.6468C62.8094 26.7901 54.8702 25.6601 49.6618 24.9189C48.4653 24.7486 47.4129 24.5988 46.5647 24.5988ZM12.9749 34.6546C12.9798 34.6615 12.982 34.6673 12.9816 34.6719C12.9426 34.623 12.901 34.5711 12.8568 34.5161C12.4081 33.9571 11.6983 33.0728 10.8855 31.6836C10.7667 31.4805 10.6502 31.2772 10.535 31.0762C9.52006 29.3056 8.59907 27.6988 6.94305 27.6988C6.83897 27.6988 6.72697 27.6991 6.6087 27.6995C4.69343 27.7053 1.0749 27.6998 0.849609 26.3795C1.23487 26.8131 1.91341 27.4672 3.84147 26.94C7.99967 25.8029 10.4743 25.6276 11.3255 29.4405C12.1768 33.2535 12.6734 34.2289 12.9749 34.6546Z" fill="#9C0001"/>
<path fill-rule="evenodd" clip-rule="evenodd" d="M42.0709 1.63855C43.6176 0.949304 44.8727 1.56023 45.1031 2.0761C45.2495 2.40497 43.2706 3.42138 41.0973 4.43638L38.9427 9.0982C38.7835 9.44381 38.4683 9.80674 38.2393 9.90889L37.7966 10.1067C37.6678 10.1634 37.5736 10.0562 37.6707 9.66599L38.4249 5.65142L37.9163 5.87824L37.5532 6.04016C34.5689 7.3707 32.8539 7.53896 32.5253 6.80347L32.141 5.94167C31.9017 5.40513 31.6376 4.81314 31.5225 4.55442C31.333 4.12935 32.0282 3.99372 32.3048 4.2054C32.4796 4.34075 33.0392 4.75447 33.4248 5.03822C33.6464 5.20223 33.8173 5.32084 34.0548 5.21415L42.0709 1.63855ZM36.5293 3.77082L38.6162 2.83998L35.7627 1.96755C35.3989 1.85575 34.9185 1.84724 34.6893 1.94939L34.246 2.14717C34.1178 2.20421 34.1342 2.34608 34.4901 2.53535L36.5293 3.77082ZM55.6416 2.83998L53.5547 3.77082L51.5154 2.53535C51.1596 2.34608 51.1432 2.20421 51.2714 2.14717L51.7146 1.94939C51.9439 1.84724 52.4243 1.85575 52.7881 1.96755L55.6416 2.83998ZM59.0962 1.63855C60.643 0.949304 61.898 1.56023 62.1285 2.0761C62.2749 2.40497 60.296 3.42138 58.1227 4.43638L55.9681 9.0982C55.8089 9.44381 55.4937 9.80674 55.2647 9.90889L54.822 10.1067C54.6932 10.1634 54.599 10.0562 54.696 9.66599L55.4503 5.65142L54.9415 5.87831L54.5786 6.04016C51.5943 7.3707 49.8793 7.53896 49.5507 6.80347L49.167 5.94303L49.162 5.93193C48.9239 5.39798 48.6623 4.81158 48.5479 4.55442C48.3584 4.12935 49.0536 3.99372 49.3302 4.2054C49.505 4.34075 50.0646 4.75447 50.4502 5.03822C50.6718 5.20223 50.8426 5.32084 51.0801 5.21415L59.0962 1.63855ZM72.667 2.83998L70.5801 3.77082L68.5408 2.53535C68.185 2.34608 68.1686 2.20421 68.2968 2.14717L68.74 1.94939C68.9693 1.84724 69.4497 1.85575 69.8135 1.96755L72.667 2.83998ZM76.1216 1.63855C77.6684 0.949304 78.9234 1.56023 79.1538 2.0761C79.3003 2.40497 77.3214 3.42138 75.1481 4.43638L72.9935 9.0982C72.8343 9.44381 72.5191 9.80674 72.2901 9.90889L71.8474 10.1067C71.7186 10.1634 71.6244 10.0562 71.7214 9.66599L72.4757 5.65142C72.3015 5.72915 72.1319 5.80478 71.9681 5.87779C71.8431 5.93352 71.7215 5.98772 71.604 6.04016C68.6197 7.3707 66.9047 7.53896 66.5761 6.80347C66.4882 6.60633 66.3436 6.28196 66.1889 5.93512C65.9503 5.40032 65.6879 4.81209 65.5733 4.55442C65.3838 4.12935 66.079 3.99372 66.3556 4.2054C66.5304 4.34075 67.09 4.75447 67.4756 5.03822C67.6972 5.20223 67.868 5.32084 68.1055 5.21415L76.1216 1.63855Z" fill="#242424"/>
</svg>
