<svg width="53" height="43" viewBox="0 0 53 43" fill="none" xmlns="http://www.w3.org/2000/svg">
<g clip-path="url(#clip0)">
<path d="M33.4365 5.04448L0 43H42.0831L52.8312 0.66424C52.9146 0.335635 52.6538 0.0210294 52.3154 0.0421775L42.3803 0.663119C38.9357 0.878411 35.718 2.45467 33.4365 5.04448Z" fill="#F51423"/>
<path fill-rule="evenodd" clip-rule="evenodd" d="M14.6759 26.3406L10.3127 31.2936C11.4937 33.6248 13.7894 35.7923 17.3124 37.0456C17.6064 37.1436 17.8808 37.222 18.1748 37.3004C19.1939 37.5356 20.2523 37.6532 21.3499 37.6532C29.0524 37.6532 35.285 31.6166 35.285 24.1885C35.285 23.1105 35.1478 22.0717 34.9126 21.0722C34.1435 35.7039 15.4769 34.9021 14.6759 26.3406ZM24.2141 15.5134L21.2691 18.8564C21.3089 18.8571 21.3489 18.8574 21.389 18.8574H30.1695C31.1495 18.8966 33.1329 19.0078 34.4226 19.8374C33.0702 17.0347 30.4243 15.3492 25.6617 15.5255L24.2141 15.5134ZM27.6497 11.6134L25.4446 14.1166C26.8818 14.1571 29.2399 14.2431 30.5224 15.1924C29.6282 13.5592 28.6755 12.4166 27.6497 11.6134ZM33.1879 14.6632C34.9126 15.9176 36.951 14.918 37.9309 14.1928C38.4405 14.3692 37.6173 14.9376 37.3625 15.016C37.4605 15.0552 37.5389 15.0944 37.6369 15.1532C37.7153 15.1924 37.7741 15.2316 37.8525 15.2904C38.6169 15.8 39.1265 16.6623 39.1265 17.6619C39.1265 19.2298 37.8525 20.4842 36.3042 20.4842C36.1474 20.4842 35.971 20.4646 35.8142 20.445L35.8338 20.543C36.7942 23.4437 36.7942 26.658 35.7946 29.5391C44.9083 25.9916 45.5158 15.212 38.1269 10.7825L37.7741 10.6061L37.8721 10.5669C40.42 9.31259 38.4797 6.11791 35.1086 7.39186C36.3238 7.84265 36.1866 9.1166 34.1482 10.6845C33.0115 11.7821 32.2667 12.8013 33.1879 14.6632ZM32.7959 16.4075L34.501 15.604C34.0503 15.5256 33.4427 15.3688 33.1291 14.9964C32.9135 15.5452 32.8547 15.9568 32.7959 16.4075ZM34.8342 12.7425C35.1282 12.7229 35.383 12.9581 35.4026 13.2521C35.4222 13.546 35.187 13.8008 34.893 13.8204C34.599 13.84 34.3442 13.6048 34.3246 13.3109C34.305 13.0169 34.5402 12.7621 34.8342 12.7425ZM45.0455 7.43107C43.654 6.99989 42.7328 8.66583 44.1636 8.82262C44.1968 8.81597 44.2165 8.73707 44.235 8.66332L44.235 8.66332C44.2708 8.51977 44.3018 8.39572 44.4184 8.86182C44.5751 9.489 43.8892 10.0182 42.576 10.4886C43.7716 10.4886 44.6927 10.469 45.6531 9.64579C46.3391 9.05782 46.0843 7.74466 45.0455 7.43107ZM26.9161 24.7568C29.1309 20.4842 19.7428 20.1902 20.1936 25.188C20.8208 32.1653 32.5607 30.323 33.7759 21.3269C31.8944 26.2856 28.0529 26.7363 26.5046 25.7564C25.9558 25.4624 25.9558 24.8352 26.191 24.6588C26.387 24.502 26.8182 24.502 26.9161 24.7568ZM32.6391 35.8109C33.6386 34.5761 34.3638 33.1258 34.7558 31.5578C32.3647 36.0853 27.504 39.1623 21.8986 39.1623C20.7619 39.1623 19.6643 39.0251 18.6059 38.79C18.312 38.7116 18.018 38.6136 17.7241 38.5156L17.7241 38.5156L17.724 38.5156L17.724 38.5156L17.724 38.5156L17.724 38.5156L17.724 38.5156L17.724 38.5156C17.6618 38.4923 17.6028 38.472 17.5456 38.4525L17.5454 38.4524L17.5454 38.4524C17.4583 38.4226 17.3755 38.3942 17.2928 38.3588C19.0763 39.4563 21.1735 40.1031 23.447 40.1227C27.1708 40.1031 30.4831 38.4176 32.6391 35.8109ZM43.5167 15.0356C45.261 14.9768 47.6913 14.1536 47.7501 11.3117C46.5938 12.1153 43.4971 12.6249 41.7527 12.3897C42.4583 13.1737 43.0659 14.0752 43.5167 15.0356ZM47.3191 14.4868C47.4171 16.3684 46.9663 18.6223 44.536 19.1123C44.4968 18.0343 44.2812 16.9367 43.8892 15.9176C45.026 15.8392 46.4175 15.4668 47.3191 14.4868ZM43.8694 23.1694C45.5158 22.7578 46.4369 20.8566 46.8093 18.8183C46.2801 19.3475 45.5354 19.7395 44.5554 19.9355C44.5162 21.0526 44.2614 22.1306 43.8694 23.1694ZM46.3783 11.5077L46.3302 11.4538L46.3302 11.4538C45.9905 11.0718 45.4298 10.4416 44.8691 10.6845C44.2028 10.9785 43.5364 10.9785 42.7524 10.9197C43.0464 11.1353 44.2812 11.8801 46.3783 11.5077Z" fill="#FFF279"/>
</g>
<defs>
<clipPath id="clip0">
<rect width="53" height="43.0006" fill="white" transform="matrix(-1 0 0 1 53 -0.000610352)"/>
</clipPath>
</defs>
</svg>
