<svg width="53" height="44" viewBox="0 0 53 44" fill="none" xmlns="http://www.w3.org/2000/svg">
<g clip-path="url(#clip0)">
<path d="M33.4365 5.0457L0 43.0012H42.0831L52.8312 0.665461C52.9146 0.336855 52.6538 0.0222501 52.3154 0.0433982L42.3803 0.664339C38.9357 0.879632 35.718 2.45589 33.4365 5.0457Z" fill="#325194"/>
<path fill-rule="evenodd" clip-rule="evenodd" d="M2.92935 43.0012C12.8109 37.0121 19.6485 36.4431 28.8316 36.5161L28.8365 36.5164C29.8392 36.5765 30.7913 36.6335 31.4052 35.3285L34.6719 30.9222C20.1138 31.0527 13.2068 34.4722 1.38184 43.0012H2.92935Z" fill="#DC2529"/>
<path fill-rule="evenodd" clip-rule="evenodd" d="M1.05219 43.0012C13.3771 31.8998 23.7331 26.8532 32.8735 25.8433C33.1322 25.5008 33.5877 24.9087 34.119 24.218C35.3012 22.6813 36.859 20.6563 37.4611 19.8061C19.7789 22.6932 10.2115 33.0489 3.70555 40.0909C2.72912 41.1478 1.82166 42.1301 0.966064 43.0012H1.05219Z" fill="#EEF2FB"/>
<path fill-rule="evenodd" clip-rule="evenodd" d="M1.57693 43.0012C8.16647 38.0467 14.7062 33.2475 28.712 31.342C29.4953 30.4545 31.7826 27.4465 32.8604 25.8425C18.7755 27.7574 9.47853 35.5174 0.982666 43.0012H1.57693Z" fill="#2C64A8"/>
<path fill-rule="evenodd" clip-rule="evenodd" d="M31.1206 35.8369C31.2588 35.3513 31.5972 34.9901 30.0037 34.0507C28.1288 32.946 27.4805 33.4105 27.8954 32.2872C28.2036 31.4347 32.2309 29.7379 35.1697 30.7336C35.1705 30.7344 32.5627 33.7554 31.1206 35.8369Z" fill="#9E1116"/>
<path fill-rule="evenodd" clip-rule="evenodd" d="M48.4494 17.9246C46.9897 18.1006 45.6292 18.1839 44.5045 18.2527C43.6522 18.3049 42.9353 18.3488 42.413 18.4185C39.4725 18.8122 37.6179 19.545 36.4401 21.0295L32.334 26.529C33.2296 25.7286 35.9358 25.3349 38.8673 25.2593L39.2781 25.2674C39.3391 25.2633 39.4013 25.2633 39.4639 25.2633C39.5264 25.2633 39.5892 25.2633 39.6515 25.2593C39.8492 25.2542 40.0529 25.2471 40.2617 25.2398C40.4892 25.2319 40.7227 25.2237 40.9611 25.2178C42.7087 25.1494 44.7418 25.0062 46.7619 24.5714L48.4494 17.9246Z" fill="#2673D0"/>
<path fill-rule="evenodd" clip-rule="evenodd" d="M46.858 24.1926C46.211 24.3223 45.541 24.4334 44.8517 24.5296C42.036 24.9239 38.8593 25.0706 37.4737 25.1346C37.307 25.1423 37.1662 25.1488 37.0552 25.1543C35.2876 25.2324 32.9385 25.7969 32.2885 26.5843C32.0014 26.9412 31.7159 27.2946 31.4363 27.6409C29.7863 29.6838 28.3357 31.4798 27.8961 32.288C28.8744 31.384 31.6636 31.2904 35.2489 31.17C36.0995 31.1415 36.9948 31.1114 37.9214 31.0687C40.5326 30.9495 43.1623 30.2841 45.6369 29.0025L46.858 24.1926Z" fill="#F53439"/>
<path fill-rule="evenodd" clip-rule="evenodd" d="M49.9408 12.05C49.7118 12.0804 49.4323 12.1042 49.1141 12.1312C47.6408 12.2564 45.337 12.4522 43.3615 13.7145C40.9481 15.2534 38.0426 18.9049 36.6143 20.827C37.9417 19.4067 39.7044 19.0025 42.2911 18.7096C43.4977 18.5703 44.9548 18.5072 46.4356 18.443C47.0722 18.4154 47.7131 18.3877 48.3404 18.3536L49.9408 12.05Z" fill="white"/>
</g>
<defs>
<clipPath id="clip0">
<rect width="53" height="43.0006" fill="white" transform="matrix(-1 0 0 1 53 0.000610352)"/>
</clipPath>
</defs>
</svg>
