<svg width="16" height="16" viewBox="0 0 16 16" fill="none" xmlns="http://www.w3.org/2000/svg">
<g clip-path="url(#clip0)">
<path fill-rule="evenodd" clip-rule="evenodd" d="M9.78415 11.983L7.48438 11.8001V10.7H9.8C9.91046 10.7 10 10.7896 10 10.9V11.7836C10 11.9003 9.90049 11.9922 9.78415 11.983ZM9.78415 4.01721L7.48438 4.20005V5.30003H9.8C9.91046 5.30003 10 5.21049 10 5.10003V4.21658C10 4.09987 9.90049 4.00796 9.78415 4.01721Z" fill="#646464"/>
<path d="M4.06325 15C4.65681 15 5.21971 14.7364 5.59969 14.2804L10 9V7L5.59969 1.71963C5.2197 1.26365 4.65681 1 4.06325 1H4L5.57771 4.15542C5.85542 4.71084 6 5.32329 6 5.94427L6 8V10.0557C6 10.6767 5.85542 11.2892 5.57771 11.8446L4 15H4.06325Z" fill="#8B8B8B"/>
<path d="M0.999878 11L3.53894 8L0.999878 5H-0.00012207L0.562016 7.80339C0.58804 7.93317 0.58804 8.06683 0.562016 8.19661L-0.00012207 11H0.999878Z" fill="#8B8B8B"/>
<path d="M12.7329 9C13.5636 9 14.3829 8.80659 15.1259 8.43509C15.4844 8.25582 15.4844 7.74418 15.1259 7.56491C14.3829 7.19341 13.5636 7 12.7329 7L5.30477 7C3.77565 7 2.25654 7.24652 0.805892 7.73007C0.546483 7.81654 0.546483 8.18346 0.805892 8.26993C2.25654 8.75348 3.77565 9 5.30477 9H12.7329Z" fill="#8B8B8B"/>
</g>
<defs>
<clipPath id="clip0">
<rect width="16" height="16" fill="white" transform="matrix(0 -1 -1 0 16 16)"/>
</clipPath>
</defs>
</svg>
