<svg width="53" height="43" viewBox="0 0 53 43" fill="none" xmlns="http://www.w3.org/2000/svg">
<path d="M33.4365 5.04509L0 43.0006H42.0831L52.8312 0.66485C52.9146 0.336245 52.6538 0.0216397 52.3154 0.0427878L42.3803 0.663729C38.9357 0.879021 35.718 2.45528 33.4365 5.04509Z" fill="#F4F4F4"/>
<path fill-rule="evenodd" clip-rule="evenodd" d="M51.5615 0.0899116C51.7672 0.188077 51.8927 0.422661 51.8313 0.66485L41.0831 43.0006H42.0831L52.8313 0.66485C52.9147 0.336245 52.6538 0.0216398 52.3154 0.0427879L51.5615 0.0899116Z" fill="#E6E6E6"/>
<path d="M46.6406 15.0772L22.1006 23.3952C22.1006 23.3952 27.3123 28.3308 34.4223 35.1302C31.385 26.0736 41.3023 17.9879 46.6406 15.0772Z" fill="#2AABE8"/>
</svg>
