<svg width="53" height="43" viewBox="0 0 53 43" fill="none" xmlns="http://www.w3.org/2000/svg">
<path d="M33.4365 5.04509L0 43.0006H42.0831L52.8312 0.66485C52.9146 0.336245 52.6538 0.0216397 52.3154 0.0427878L42.3803 0.663729C38.9357 0.879021 35.718 2.45528 33.4365 5.04509Z" fill="#F4F4F4"/>
<path fill-rule="evenodd" clip-rule="evenodd" d="M2.12326 40.5904C19.7358 34.683 35.2822 26.807 48.2475 18.7198L52.8313 0.664832C52.8568 0.564309 52.8501 0.465096 52.8188 0.376404L29.618 9.37969L2.12326 40.5904Z" fill="#F37021"/>
<path fill-rule="evenodd" clip-rule="evenodd" d="M11.545 29.8953L3.8147e-05 43.0006H38.9332C30.7557 37.6846 21.3408 32.8164 11.545 29.8953Z" fill="#00B2D5"/>
<path fill-rule="evenodd" clip-rule="evenodd" d="M11.5449 29.8953L2.12317 40.5904C8.66825 38.3952 14.928 35.928 20.876 33.2792C17.8244 31.9822 14.7045 30.8375 11.5449 29.8953Z" fill="#00529C"/>
</svg>
