<svg width="53" height="43" viewBox="0 0 53 43" fill="none" xmlns="http://www.w3.org/2000/svg">
<g clip-path="url(#clip0)">
<path d="M33.4365 5.04509L0 43.0006H42.0831L52.8312 0.66485C52.9146 0.336245 52.6538 0.0216397 52.3154 0.0427878L42.3803 0.663729C38.9357 0.879021 35.718 2.45528 33.4365 5.04509Z" fill="#E62731"/>
<path fill-rule="evenodd" clip-rule="evenodd" d="M38.5708 1.48718L2 43.0006H-3.8147e-06L33.4365 5.04507C34.8463 3.4448 36.6135 2.23151 38.5708 1.48718Z" fill="#46484D"/>
<path fill-rule="evenodd" clip-rule="evenodd" d="M10.8099 33H8.80994L2.76566e-05 43.0006H2.00003L10.8099 33Z" fill="#989898"/>
<g clip-path="url(#clip1)">
<path d="M23.6628 21.6996L20.7871 25.2029L22.2606 31.5272L25.9622 31.428C26.0359 31.4368 26.0902 31.3739 26.0708 31.3022L23.8549 21.7281C23.8218 21.6723 23.7171 21.6368 23.6628 21.6996Z" fill="url(#paint0_linear)"/>
<path d="M16.6273 29.8466C15.1741 31.5295 16.2096 34.126 18.4017 34.3168L23.108 34.7018C23.1817 34.7106 23.236 34.6477 23.2166 34.576L20.9443 24.8162L16.6118 29.8332L16.6273 29.8466Z" fill="white"/>
<path d="M14.2406 33.9906C13.7226 34.1199 13.224 34.3208 12.7642 34.6651C12.3025 34.9802 11.9028 35.3489 11.5497 35.7578L9.74331 37.8495C9.68898 37.9124 9.6812 38.0155 9.75878 38.0825L15.671 43.1882C15.7331 43.2418 15.8359 43.2482 15.9038 43.1696L17.7102 41.0778C18.0633 40.6689 18.3544 40.2064 18.5988 39.7037C18.8278 39.1876 18.9676 38.6493 19.0045 38.1046C19.0414 37.5599 18.9465 37.0112 18.7351 36.4717C18.5237 35.9322 18.1532 35.4201 17.6101 34.9511C17.036 34.4553 16.4443 34.1365 15.8798 34.006C15.3153 33.8754 14.7586 33.8614 14.2406 33.9906ZM17.4119 37.251C17.569 37.6337 17.6078 37.9967 17.5747 38.38C17.5262 38.7499 17.433 39.1088 17.237 39.4612C17.0546 39.7979 16.8276 40.1235 16.5832 40.4066L15.7818 41.3345L11.53 37.6627L12.3313 36.7348C12.5758 36.4517 12.8649 36.1797 13.1714 35.9502C13.478 35.7207 13.8175 35.5472 14.1764 35.4453C14.5353 35.3434 14.9155 35.3422 15.3171 35.4419C15.7186 35.5416 16.1434 35.7711 16.5779 36.1464C16.9814 36.4948 17.2704 36.8816 17.4119 37.251Z" fill="white"/>
<path d="M29.7334 14.6699L28.9865 15.5349C28.9322 15.5977 28.9245 15.7008 29.0021 15.7678L33.4867 19.6405L33.473 19.6564L27.0753 18.6891C26.6466 18.6208 26.1752 18.7903 25.8899 19.1206L25.1972 19.9227C25.1428 19.9858 25.1351 20.0888 25.2126 20.1558L31.1249 25.2615C31.1869 25.3151 31.2898 25.3214 31.3578 25.2428L32.1047 24.3778C32.159 24.315 32.1669 24.2117 32.0893 24.1447L27.4495 20.1379L27.463 20.1223L34.0548 21.1471C34.499 21.2288 34.955 21.0459 35.2402 20.7156L35.8784 19.9766C35.9329 19.9135 35.9406 19.8104 35.863 19.7434L29.9508 14.6378C29.8906 14.6134 29.7879 14.6068 29.7334 14.6699Z" fill="white"/>
<path d="M24.6113 22.5463L25.0844 24.6022C25.1056 24.703 25.1543 24.7722 25.2318 24.8392L28.8009 27.9213C28.863 27.975 28.9658 27.9813 29.0336 27.9029L29.7807 27.0377C29.835 26.9748 29.8427 26.8718 29.7651 26.8048L24.7219 22.4496C24.6774 22.4384 24.6074 22.4881 24.6113 22.5463Z" fill="white"/>
<path d="M38.2815 10.1356L36.937 11.6925C36.8962 11.7398 36.8729 11.8294 36.8768 11.8876L37.1134 13.0253C37.1347 13.1262 37.2531 13.1459 37.3073 13.0831L38.353 11.8722L39.9203 13.2257C39.7612 13.6922 39.4722 14.1838 39.0647 14.6556C38.7658 15.0017 38.4322 15.2625 38.0926 15.4362C37.951 15.5061 37.7938 15.5626 37.6504 15.6032C37.435 15.6644 37.2332 15.7099 37.014 15.7128C36.6492 15.7273 36.2942 15.6679 35.9198 15.5367C35.5454 15.4056 35.21 15.1981 34.8686 14.9032C34.5738 14.6486 34.3506 14.3738 34.1703 14.0807C34.1529 14.0381 34.1374 14.0247 34.1198 13.9823C33.9356 13.631 33.825 13.2884 33.7863 12.9255C33.7476 12.5625 33.7826 12.2083 33.8894 11.8336C34.0115 11.4726 34.2076 11.1201 34.4928 10.7898C34.778 10.4596 35.1116 10.1987 35.4802 10.0229C35.75 9.89866 36.0061 9.79029 36.2388 9.7718C36.3262 9.76475 36.3921 9.65708 36.3727 9.58546L36.1381 8.47677C36.1169 8.37591 36.0256 8.32474 35.9403 8.36078C35.595 8.44697 35.2535 8.59139 34.9023 8.80985C34.4095 9.09822 33.9381 9.4872 33.5036 9.99043C33.0824 10.4781 32.7797 10.9855 32.5819 11.5282C32.3839 12.0712 32.2888 12.6205 32.2945 13.1472C32.2983 13.4251 32.3468 13.7141 32.4089 13.9872C32.4845 14.2447 32.5736 14.4866 32.6784 14.7417C32.9325 15.263 33.2854 15.7327 33.782 16.1616C33.8751 16.242 33.9682 16.3224 34.0594 16.3735C34.459 16.6637 34.8839 16.8933 35.3183 17.049C35.8713 17.2242 36.4026 17.2991 36.9537 17.2256C37.4911 17.1679 38.0362 17.0072 38.5444 16.7325C39.0664 16.4417 39.5378 16.0527 39.9723 15.5495C40.3935 15.0618 40.7272 14.5812 40.9755 14.1369C41.1968 13.7238 41.3753 13.329 41.4802 12.9251C41.5034 12.8354 41.4685 12.7504 41.4064 12.6968L38.4426 10.1373C38.4368 10.0498 38.3495 10.0569 38.2815 10.1356Z" fill="white"/>
<path d="M43.7642 5.70021C43.4675 5.63612 43.1611 5.64581 42.8874 5.71179C42.5984 5.76413 42.3288 5.88809 42.0455 6.02788C41.7778 6.18108 41.5237 6.31844 41.2986 6.45362C41.285 6.46945 41.2423 6.48746 41.2286 6.50329C41.186 6.52131 41.1588 6.55273 41.1299 6.55494C40.9901 6.65405 40.8484 6.72394 40.736 6.79142C40.5672 6.89274 40.3964 6.96506 40.2237 7.00816C40.0666 7.06465 39.9056 7.06292 39.7718 7.02954C39.6243 7.01221 39.473 6.93643 39.3333 6.81583C39.1782 6.68182 39.0811 6.54319 39.027 6.38631C38.9726 6.22966 38.9765 6.06838 38.994 5.89128C39.027 5.72758 39.0755 5.57728 39.1377 5.41116C39.2152 5.25866 39.3084 5.11934 39.4306 4.97782C39.6208 4.75762 39.8575 4.57763 40.1426 4.46707C40.2416 4.41519 40.3561 4.37672 40.4569 4.35408C40.5422 4.31803 40.5967 4.25495 40.5752 4.15433L40.3485 3.16209C40.3272 3.06123 40.236 3.01006 40.1507 3.04611C39.9508 3.12062 39.7664 3.20877 39.5686 3.31229C39.1748 3.54878 38.8411 3.80964 38.5694 4.12433C38.3249 4.40737 38.1115 4.71722 37.9582 5.05167C37.8048 5.38612 37.6961 5.73154 37.6593 6.05651C37.6243 6.41071 37.6612 6.74447 37.7697 7.058C37.8939 7.3847 38.0898 7.69118 38.4001 7.9592C38.695 8.21381 38.9685 8.36756 39.2517 8.44751C39.5348 8.52743 39.7987 8.53552 40.0606 8.51461C40.3361 8.47787 40.5649 8.40115 40.821 8.29278C41.048 8.18684 41.2596 8.06727 41.4555 7.93452C41.4692 7.9187 41.4982 7.91651 41.5118 7.90068C41.5118 7.90068 41.5118 7.90068 41.5253 7.88509C41.7504 7.7499 41.9755 7.61474 42.1869 7.49541C42.3983 7.37605 42.5963 7.27231 42.7826 7.21338C42.9687 7.1547 43.1569 7.12501 43.3335 7.14013C43.51 7.15526 43.6768 7.24445 43.832 7.37846C44.0027 7.52586 44.1152 7.67789 44.1694 7.83478C44.2237 7.99141 44.2354 8.16609 44.218 8.3432C44.2005 8.5203 44.1383 8.68642 44.0607 8.83891C43.9696 9.00725 43.8763 9.14656 43.7678 9.27225C43.5503 9.5241 43.271 9.72213 42.9295 9.86653C42.6599 9.9905 42.3438 10.0743 42.1556 10.104C42.0682 10.111 42.0022 10.2189 42.0216 10.2905L42.2503 11.3118C42.2698 11.3834 42.3474 11.4504 42.4347 11.4434C42.6519 11.4115 43.069 11.3048 43.4358 11.0998C43.9149 10.8272 44.332 10.5011 44.6852 10.0921C44.9433 9.79324 45.1548 9.45418 45.308 9.11997C45.4748 8.76993 45.5545 8.42669 45.5603 8.07492C45.5818 7.73631 45.5139 7.37576 45.3762 7.06465C45.2365 6.72455 45.0117 6.42025 44.6703 6.12546C44.3638 5.91567 44.0611 5.76433 43.7642 5.70021Z" fill="white"/>
<path d="M13.7697 43.6331L11.1349 46.6842L9.39691 45.1833L11.7601 42.4468C11.8144 42.3839 11.8222 42.2808 11.7446 42.2138L11.0619 41.6241C10.9998 41.5705 10.897 41.5641 10.8291 41.6427L8.46585 44.3793L6.89856 43.0258L7.64555 42.1608L9.53341 39.9747C9.58774 39.9118 9.59552 39.8087 9.51793 39.7417L8.80412 39.1253C8.74205 39.0717 8.63922 39.0653 8.57132 39.1439L6.0587 42.0535L5.88214 42.2579C5.37961 42.8398 5.4377 43.7137 6.01185 44.2095L10.093 47.7338C10.6672 48.2297 11.5401 48.1599 12.0426 47.578L14.7318 44.4639C14.7862 44.401 14.7939 44.2979 14.7163 44.2309L13.987 43.6011C13.9405 43.5609 13.8241 43.5702 13.7697 43.6331Z" fill="white"/>
</g>
</g>
<defs>
<linearGradient id="paint0_linear" x1="21.5505" y1="30.3724" x2="26.812" y2="24.2798" gradientUnits="userSpaceOnUse">
<stop stop-color="#ACACAC"/>
<stop offset="0.072" stop-color="#A9A9A9"/>
<stop offset="0.309" stop-color="#C5C5C5"/>
<stop offset="0.544" stop-color="#D9D9D9"/>
<stop offset="0.776" stop-color="#E7E7E7"/>
<stop offset="1" stop-color="#ECECEC"/>
</linearGradient>
<clipPath id="clip0">
<rect width="53" height="43.0006" fill="white" transform="matrix(-1 0 0 1 53 0)"/>
</clipPath>
<clipPath id="clip1">
<rect width="61.509" height="8.61126" fill="white" transform="translate(0.0518799 48.7269) rotate(-49.187)"/>
</clipPath>
</defs>
</svg>
