<svg width="53" height="43" viewBox="0 0 53 43" fill="none" xmlns="http://www.w3.org/2000/svg">
<path d="M33.4365 5.04509L0 43.0006H42.0831L52.8312 0.66485C52.9146 0.336245 52.6538 0.0216397 52.3154 0.0427878L42.3803 0.663729C38.9357 0.879021 35.718 2.45528 33.4365 5.04509Z" fill="#3FD049"/>
<path fill-rule="evenodd" clip-rule="evenodd" d="M27.2499 12.0679L18.5154 21.9828C19.1887 23.0924 20.3424 24.1265 22.1446 25.2405C25.6414 27.3603 26.339 28.0608 26.339 29.3381C26.339 30.7361 24.9693 32.3273 21.4451 32.3273C20.215 32.3273 18.3623 32.157 17.1785 31.8674L16.6136 31.725C16.2984 32.5698 15.5831 34.5682 15.365 35.2932L15.9243 35.4577C16.9892 35.7974 19.5165 36.0626 21.3272 36.0626C27.3507 36.0626 30.9446 32.4235 30.9446 28.6127C30.9446 26.2711 29.8817 24.4915 26.2886 22.2495C24.4863 21.1409 23.5678 20.422 23.01 19.8655C22.5579 19.2845 22.5078 18.8521 22.5078 18.3954C22.5078 17.9593 22.6048 17.4568 22.8923 17.0887C23.2032 16.6336 23.7735 16.3437 24.5454 16.1044C25.3388 15.8412 26.8087 15.8343 29.0981 15.8343H31.2298L32.7519 12.028H29.641V12.0278C28.7699 12.0278 27.976 12.04 27.2499 12.0679ZM35.0388 12.0278H45.7508C46.2544 12.0278 46.3508 12.3837 46.1568 12.7711C45.4564 14.5072 38.8476 31.0659 38.8476 31.0659H34.4298C34.4298 31.0659 39.6497 17.7639 40.5158 15.7825C40.3156 15.7825 40.1309 15.7883 39.8849 15.7959C39.394 15.8111 38.6588 15.834 37.0672 15.834H33.5165L35.0388 12.0278Z" fill="white"/>
</svg>
